<?xml version="1.0" encoding="UTF-8" standalone="no" ?>
<!DOCTYPE svg PUBLIC "-//W3C//DTD SVG 1.1//EN" "http://www.w3.org/Graphics/SVG/1.1/DTD/svg11.dtd">
<svg xmlns="http://www.w3.org/2000/svg" xmlns:xlink="http://www.w3.org/1999/xlink" version="1.1" width="1080" height="1080" viewBox="0 0 1080 1080" xml:space="preserve">
<desc>Created with Fabric.js 5.2.4</desc>
<defs>
</defs>
<rect x="0" y="0" width="100%" height="100%" fill="transparent"></rect>
<g transform="matrix(1 0 0 1 540 540)" id="4cf32289-696a-4402-a355-6b907786e302"  >
<rect style="stroke: none; stroke-width: 1; stroke-dasharray: none; stroke-linecap: butt; stroke-dashoffset: 0; stroke-linejoin: miter; stroke-miterlimit: 4; fill: rgb(255,255,255); fill-rule: nonzero; opacity: 1; visibility: hidden;" vector-effect="non-scaling-stroke"  x="-540" y="-540" rx="0" ry="0" width="1080" height="1080" />
</g>
<g transform="matrix(0 0 0 0 0 0)" id="8ab88eae-61bc-44b8-84d7-7c9a3cc5f647"  >
</g>
<g transform="matrix(0.57 0 0 0.57 816.9 459.78)"  >
<polygon style="stroke: none; stroke-width: 0; stroke-dasharray: none; stroke-linecap: butt; stroke-dashoffset: 0; stroke-linejoin: miter; stroke-miterlimit: 4; fill: rgb(0,0,0); fill-rule: nonzero; opacity: 1;" vector-effect="non-scaling-stroke"  points="-42.45,596.8 0.05,621.3 42.45,596.8 42.45,-729.9 205.55,-729.9 205.55,611.2 0.05,729.9 -205.55,611.2 -205.55,-729.9 -42.45,-729.9 -42.45,596.8 " />
</g>
<g transform="matrix(0.57 0 0 0.57 263.59 493.91)"  >
<path style="stroke: none; stroke-width: 0; stroke-dasharray: none; stroke-linecap: butt; stroke-dashoffset: 0; stroke-linejoin: miter; stroke-miterlimit: 4; fill: rgb(0,0,0); fill-rule: nonzero; opacity: 1;" vector-effect="non-scaling-stroke"  transform=" translate(-356.1, -938.6)" d="M 487.9 902.5 L 470.2 887.8 L 487.9 873.0999999999999 C 535 833.8 562.5 776.0999999999999 562.5 714.5999999999999 L 562.5 150.1 L 398.8 150.1 L 398.8 784.9 C 398.8 808 379.2 827.6 356.1 827.6 L 313.5 827.6 L 313.5 148.9 L 149.7 148.9 L 149.7 1490 L 313.5 1584.5 L 313.5 911.2 L 356.1 911.2 C 379.20000000000005 911.2 398.8 930.8000000000001 398.8 953.9000000000001 L 398.8 1633.8000000000002 L 562.5 1728.3000000000002 L 562.5 1061.0000000000002 C 562.5 999.5000000000002 535 941.8000000000002 487.9 902.5000000000002 Z" stroke-linecap="round" />
</g>
<g transform="matrix(0.57 0 0 0.57 507.3 540.03)"  >
<polygon style="stroke: none; stroke-width: 0; stroke-dasharray: none; stroke-linecap: butt; stroke-dashoffset: 0; stroke-linejoin: miter; stroke-miterlimit: 4; fill: rgb(0,0,0); fill-rule: nonzero; opacity: 1;" vector-effect="non-scaling-stroke"  points="25.5,744.5 25.5,744.4 13.3,737.4 13.3,629 13.2,628.1 13.3,628.2 13.3,-870.4 -149.8,-870.4 -149.8,751.8 55.8,870.4 149.8,816.2 25.5,744.5 " />
</g>
<g transform="matrix(0.57 0 0 0.57 609.92 508.98)"  >
<polygon style="stroke: none; stroke-width: 0; stroke-dasharray: none; stroke-linecap: butt; stroke-dashoffset: 0; stroke-linejoin: miter; stroke-miterlimit: 4; fill: rgb(0,0,0); fill-rule: nonzero; opacity: 1;" vector-effect="non-scaling-stroke"  points="64.6,816 81.5,806.2 81.5,-816 -81.5,-816 -81.5,731.6 64.6,816 " />
</g>
</svg>