<?xml version="1.0" encoding="UTF-8"?>
<svg id="LOGO" xmlns="http://www.w3.org/2000/svg" version="1.1" viewBox="0 0 1685 2543">
  <defs>
    <style>
      .cls-1 {
        fill: #fff;
        stroke-width: 0px;
      }
    </style>
  </defs>
  <g>
    <polygon class="cls-1" points="1286.8 1475.6 1329.3 1500.1 1371.7 1475.6 1371.7 148.9 1534.8 148.9 1534.8 1490 1329.3 1608.7 1123.7 1490 1123.7 148.9 1286.8 148.9 1286.8 1475.6"/>
    <path class="cls-1" d="M487.9,902.5l-17.7-14.7,17.7-14.7c47.1-39.3,74.6-97,74.6-158.5V150.1h-163.7v634.8c0,23.1-19.6,42.7-42.7,42.7h-42.6V148.9h-163.8v1341.1l163.8,94.5v-673.3h42.6c23.1,0,42.7,19.6,42.7,42.7v679.9l163.7,94.5v-667.3c0-61.5-27.5-119.2-74.6-158.5Z"/>
    <g>
      <polygon class="cls-1" points="812.3 1763.9 812.3 1763.8 800.1 1756.8 800.1 1648.4 800 1647.5 800.1 1647.6 800.1 149 637 149 637 1771.2 842.6 1889.8 936.6 1835.6 812.3 1763.9"/>
      <polygon class="cls-1" points="1031.2 1781 1048.1 1771.2 1048.1 149 885.1 149 885.1 1696.6 1031.2 1781"/>
    </g>
  </g>
  <g>
    <path class="cls-1" d="M149.8,2391.2v-321.7h36.4v321.7h-36.4Z"/>
    <path class="cls-1" d="M202.8,2069.5h45.8c1.6,0,3.2,0,4.8.2,23.2,2.4,41.1,22.2,41.1,45.6v230c0,23.4-17.9,43.2-41.1,45.6-1.6.2-3.2.2-4.8.2h-45.8v-321.7ZM248.7,2372.6c5.1,0,9.5-4.3,9.5-9.5v-265.6c0-5.1-4.3-9.5-9.5-9.5h-9.5v284.5h9.5Z"/>
    <path class="cls-1" d="M311.2,2069.5h45.8c1.6,0,3.2,0,4.8.2,23.2,2.4,41.1,22.2,41.1,45.6v80.6c0,13.7-6.1,26.5-16.6,35.2l-3.9,3.3,3.9,3.3c10.5,8.7,16.6,21.5,16.6,35.2v118.3h-36.4v-142.1c0-5.1-4.3-9.5-9.5-9.5h-9.5v151.6h-36.4v-321.7ZM357.1,2221c5.1,0,9.5-4.3,9.5-9.5v-114c0-5.1-4.3-9.5-9.5-9.5h-9.5v133h9.5Z"/>
    <path class="cls-1" d="M511.3,2348.3c0,25.2-20.6,45.8-45.8,45.8s-45.8-20.6-45.8-45.8v-235.9c0-25.2,20.6-45.8,45.8-45.8s45.8,20.6,45.8,45.8v235.9ZM465.4,2375.6c5.2,0,9.5-4.3,9.5-9.5v-271.5c0-5.2-4.3-9.5-9.5-9.5s-9.5,4.3-9.5,9.5v271.5c0,5.2,4.2,9.5,9.5,9.5Z"/>
    <path class="cls-1" d="M542.6,2088.1h-19.6v-18.6h75.6v18.6h-19.6v303.1h-36.4v-303.1Z"/>
    <path class="cls-1" d="M634.8,2088.1h-19.6v-18.6h75.6v18.6h-19.6v303.1h-36.4v-303.1Z"/>
    <path class="cls-1" d="M738.7,2253.5v112.5c0,5.2,4.3,9.5,9.5,9.5s9.5-4.3,9.5-9.5v-111.3l-43.8-25.3c-7.4-4.3-11.5-11.5-11.5-20v-97.1c0-23.4,17.9-43.2,41.1-45.6,1.6-.2,3.2-.2,4.8-.2s3.2,0,4.8.2c23.2,2.4,41.1,22.2,41.1,45.6v89.7h-36.4v-107.5c0-5.2-4.3-9.5-9.5-9.5s-9.5,4.3-9.5,9.5v107.2l43.8,25.3c7.4,4.3,11.5,11.5,11.5,20v101.2c0,23.4-17.9,43.2-41.1,45.6-1.6.2-3.2.2-4.8.2s-3.2,0-4.8-.2c-23.2-2.4-41.1-22.2-41.1-45.6v-94.8h36.4Z"/>
    <path class="cls-1" d="M810.8,2069.5h56v18.6h-19.6v133h19.6v18.6h-19.6v151.5h-36.4v-321.7Z"/>
    <path class="cls-1" d="M975.3,2347.7c0,25.2-20.6,45.8-45.8,45.8s-45.8-20.6-45.8-45.8v-235.9c0-25.2,20.6-45.8,45.8-45.8s45.8,20.6,45.8,45.8v235.9ZM924.2,2032.5c0,10.6-8.6,19.2-19.2,19.2s-19.2-8.6-19.2-19.2,8.6-19.2,19.2-19.2,19.2,8.6,19.2,19.2ZM929.5,2375c5.2,0,9.5-4.3,9.5-9.5v-271.5c0-5.2-4.3-9.5-9.5-9.5s-9.5,4.3-9.5,9.5v271.5c0,5.2,4.3,9.5,9.5,9.5ZM973,2032.5c0,10.6-8.6,19.2-19.2,19.2s-19.2-8.6-19.2-19.2,8.6-19.2,19.2-19.2,19.2,8.6,19.2,19.2Z"/>
    <path class="cls-1" d="M992,2069.5h45.8c1.6,0,3.2,0,4.8.2,23.2,2.4,41.1,22.2,41.1,45.6v80.6c0,13.7-6.1,26.5-16.6,35.2l-3.9,3.3,3.9,3.3c10.5,8.7,16.6,21.5,16.6,35.2v118.3h-36.4v-142.1c0-5.1-4.3-9.5-9.5-9.5h-9.5v151.6h-36.4v-321.7ZM1037.9,2221c5.1,0,9.5-4.3,9.5-9.5v-114c0-5.1-4.3-9.5-9.5-9.5h-9.5v133h9.5Z"/>
    <path class="cls-1" d="M1100.4,2069.5h56v18.6h-19.6v133h19.6v18.6h-19.6v133h19.6v18.6h-56v-321.7Z"/>
    <path class="cls-1" d="M1228.6,2391.2v-293.6c0-5.1-4.3-9.5-9.5-9.5h-9.5v303.1h-36.4v-321.7h45.8c1.6,0,3.2,0,4.8.2,23.2,2.4,41.1,22.2,41.1,45.6v275.8h-36.4Z"/>
    <path class="cls-1" d="M1281.7,2391.2v-321.7h36.4v321.7h-36.4Z"/>
    <path class="cls-1" d="M1390,2391.2v-293.6c0-5.1-4.3-9.5-9.5-9.5h-9.5v303.1h-36.4v-321.7h45.8c1.6,0,3.2,0,4.8.2,23.2,2.4,41.1,22.2,41.1,45.6v275.8h-36.4Z"/>
    <path class="cls-1" d="M1498.4,2092.4c0-5.2-4.3-9.5-9.5-9.5s-9.5,4.3-9.5,9.5v271.5c0,5.2,4.3,9.5,9.5,9.5s9.5-4.3,9.5-9.5v-126.5h-9.8v-18.6h46.1v127.3c0,25.2-20.6,45.8-45.8,45.8s-45.8-20.6-45.8-45.8v-235.9c0-25.2,20.6-45.8,45.8-45.8s45.8,24,45.8,48.8v86.8h-36.4v-107.5Z"/>
  </g>
</svg>